<svg width="146" height="20" viewBox="0 0 146 20" fill="none" xmlns="http://www.w3.org/2000/svg">
<path d="M0.952647 18.5232C0.662727 18.2257 0.521484 17.839 0.521484 17.3592V2.8371C0.521484 2.35737 0.666444 1.97433 0.952647 1.68798C1.23885 1.40163 1.62541 1.25659 2.10117 1.25659C2.57694 1.25659 2.9858 1.40163 3.27572 1.68798C3.56564 1.97805 3.70688 2.36109 3.70688 2.8371V17.3592C3.70688 17.839 3.56192 18.2257 3.27572 18.5232C2.9858 18.8207 2.59553 18.9695 2.10117 18.9695C1.60682 18.9695 1.23885 18.8207 0.952647 18.5232Z" fill="white"/>
<path d="M17.4597 7.66063C18.1696 8.48621 18.5227 9.73203 18.5227 11.3981V17.4858C18.5227 17.947 18.3852 18.3114 18.1139 18.5755C17.8425 18.8395 17.4671 18.9697 16.9876 18.9697C16.5081 18.9697 16.129 18.8358 15.8503 18.5755C15.5715 18.3114 15.4302 17.947 15.4302 17.4858V11.5729C15.4302 10.632 15.2518 9.94772 14.8987 9.52006C14.5456 9.09239 13.9881 8.87669 13.2298 8.87669C12.3378 8.87669 11.6278 9.15933 11.0926 9.71715C10.5574 10.2787 10.2897 11.0299 10.2897 11.9671V17.4858C10.2897 17.947 10.1485 18.3114 9.86973 18.5755C9.59096 18.8395 9.21184 18.9697 8.73235 18.9697C8.25287 18.9697 7.87746 18.8358 7.60613 18.5755C7.33479 18.3114 7.19727 17.947 7.19727 17.4858V7.90979C7.19727 7.48212 7.33851 7.13627 7.61728 6.87223C7.89605 6.60819 8.27517 6.47803 8.75465 6.47803C9.1821 6.47803 9.53521 6.60447 9.80654 6.86107C10.0779 7.11768 10.2154 7.45237 10.2154 7.86145V8.53084C10.628 7.85401 11.1781 7.33337 11.8732 6.97264C12.5645 6.60819 13.3488 6.42969 14.2222 6.42969C15.6718 6.42969 16.7535 6.84248 17.4634 7.66807L17.4597 7.66063Z" fill="white"/>
<path d="M30.6301 6.69762C30.8531 6.54886 31.0947 6.47449 31.3586 6.47449C31.7377 6.47449 32.0797 6.60093 32.3845 6.85753C32.6893 7.11413 32.8417 7.43023 32.8417 7.80956C32.8417 8.00666 32.7933 8.20375 32.693 8.40457L28.1175 17.9806C27.9688 18.293 27.7606 18.5347 27.4856 18.6984C27.2105 18.862 26.9132 18.9475 26.5824 18.9475C26.2516 18.9475 25.9691 18.8657 25.6792 18.6984C25.3892 18.5347 25.1737 18.293 25.025 17.9806L20.4234 8.40457C20.3417 8.24094 20.3008 8.05128 20.3008 7.83559C20.3008 7.45626 20.4606 7.13644 20.784 6.8724C21.1036 6.60837 21.4716 6.47821 21.8842 6.47821C22.4789 6.47821 22.9138 6.76828 23.1963 7.3447L26.6567 14.9907L30.0949 7.37073C30.225 7.07322 30.4034 6.85009 30.6264 6.70134L30.6301 6.69762Z" fill="white"/>
<path d="M44.7271 15.8272C44.9018 16.0429 44.9873 16.3293 44.9873 16.6937C44.9873 17.2069 44.6825 17.6346 44.073 17.9804C43.5117 18.2928 42.8761 18.5457 42.1699 18.7354C41.46 18.925 40.7835 19.0217 40.1405 19.0217C38.1965 19.0217 36.654 18.4602 35.5166 17.3408C34.3792 16.2177 33.8105 14.6855 33.8105 12.7406C33.8105 11.5022 34.0596 10.4051 34.5539 9.4494C35.0483 8.49365 35.7433 7.74988 36.6428 7.2218C37.5423 6.69373 38.5608 6.42969 39.6981 6.42969C40.8355 6.42969 41.735 6.66769 42.5416 7.14743C43.3482 7.62716 43.9763 8.30399 44.4223 9.17792C44.8684 10.0519 45.0914 11.082 45.0914 12.272C45.0914 12.9823 44.7792 13.3356 44.151 13.3356H36.8547C36.9551 14.4736 37.2747 15.3103 37.8174 15.8458C38.3601 16.3813 39.1518 16.6491 40.1925 16.6491C40.7203 16.6491 41.1849 16.5822 41.5901 16.452C41.9952 16.3218 42.4524 16.1396 42.9616 15.909C43.456 15.645 43.8202 15.5148 44.0507 15.5148C44.3294 15.5148 44.5562 15.6227 44.7309 15.8347L44.7271 15.8272ZM37.7542 9.39361C37.2524 9.92169 36.9513 10.6803 36.851 11.6696H42.4412C42.4078 10.6655 42.1625 9.89938 41.6978 9.38246C41.2369 8.86182 40.5939 8.6015 39.7688 8.6015C38.9436 8.6015 38.256 8.86554 37.7542 9.39361Z" fill="white"/>
<path d="M47.6276 17.9545C47.0998 17.6421 46.8359 17.1958 46.8359 16.6194C46.8359 16.2884 46.9251 16.0207 47.1073 15.8161C47.2894 15.6116 47.5124 15.5075 47.7763 15.5075C48.0551 15.5075 48.4454 15.6413 48.9397 15.9017C49.4675 16.1508 49.9507 16.3405 50.3856 16.4707C50.8205 16.6045 51.378 16.6678 52.0545 16.6678C52.731 16.6678 53.2885 16.5525 53.6751 16.3219C54.0616 16.0913 54.2549 15.7678 54.2549 15.3587C54.2549 15.0798 54.1769 14.8567 54.0207 14.6893C53.8646 14.5257 53.5821 14.3732 53.1807 14.2319C52.7756 14.0906 52.1623 13.9307 51.3371 13.7485C49.8689 13.4509 48.8171 13.0307 48.1852 12.4878C47.5496 11.9448 47.2336 11.1936 47.2336 10.2379C47.2336 9.51267 47.4492 8.85816 47.8767 8.27058C48.3041 7.68672 48.8951 7.23302 49.6459 6.90948C50.3967 6.58965 51.2479 6.42603 52.2069 6.42603C52.8982 6.42603 53.5673 6.51156 54.2103 6.68634C54.8533 6.86113 55.4295 7.11029 55.9424 7.44127C56.4702 7.77225 56.7341 8.20736 56.7341 8.75403C56.7341 9.08501 56.6449 9.3602 56.4628 9.58333C56.2806 9.80646 56.0576 9.91803 55.7937 9.91803C55.6116 9.91803 55.4369 9.88084 55.2622 9.80646C55.0875 9.73209 54.8719 9.62052 54.608 9.47177C54.1285 9.2226 53.716 9.04038 53.3703 8.91394C53.0246 8.79122 52.5934 8.728 52.0842 8.728C51.4746 8.728 50.9915 8.85072 50.6383 9.09988C50.2852 9.34904 50.1068 9.68374 50.1068 10.1151C50.1068 10.5465 50.289 10.8403 50.6495 11.056C51.0138 11.2717 51.7125 11.4837 52.7533 11.6994C53.8572 11.9299 54.7232 12.194 55.3514 12.4915C55.9796 12.789 56.4256 13.1609 56.7006 13.6034C56.972 14.0497 57.1095 14.6187 57.1095 15.3104C57.1095 16.4335 56.6449 17.3297 55.7119 18.0065C54.779 18.6834 53.5413 19.0218 51.9913 19.0218C50.196 19.0218 48.7427 18.6685 47.6388 17.9582L47.6276 17.9545Z" fill="white"/>
<path d="M66.9911 17.7832C66.9911 18.1774 66.8313 18.4787 66.5079 18.6869C66.1883 18.8914 65.7274 18.9807 65.1364 18.9472L64.4673 18.8989C61.6982 18.7018 60.3118 17.218 60.3118 14.4437V9.05136H59.0741C58.6281 9.05136 58.2861 8.95095 58.0482 8.75385C57.8103 8.55675 57.6914 8.26668 57.6914 7.88735C57.6914 7.50803 57.8103 7.21796 58.0482 7.02086C58.2861 6.82376 58.6281 6.72335 59.0741 6.72335H60.3118V4.44741C60.3118 4.00115 60.4531 3.64786 60.7318 3.38382C61.0106 3.11978 61.3897 2.98962 61.8692 2.98962C62.3487 2.98962 62.7018 3.1235 62.9806 3.38382C63.2593 3.64786 63.4006 4.00115 63.4006 4.44741V6.72335H65.5044C65.9504 6.72335 66.2924 6.82376 66.5302 7.02086C66.7681 7.21796 66.8871 7.50803 66.8871 7.88735C66.8871 8.26668 66.7681 8.55675 66.5302 8.75385C66.2924 8.95095 65.9504 9.05136 65.5044 9.05136H63.4006V14.6668C63.4006 15.8866 63.9618 16.5374 65.0806 16.6229L65.7497 16.6713C66.5748 16.7196 66.9874 17.0915 66.9874 17.7832H66.9911Z" fill="white"/>
<path d="M68.7971 3.81546C68.4663 3.51051 68.3027 3.10887 68.3027 2.61427C68.3027 2.11966 68.4663 1.72174 68.7971 1.42795C69.1279 1.13044 69.5702 0.981689 70.1315 0.981689C70.6927 0.981689 71.1164 1.13044 71.4547 1.42795C71.7929 1.72546 71.9602 2.11966 71.9602 2.61427C71.9602 3.10887 71.7966 3.51051 71.4658 3.81546C71.135 4.1204 70.689 4.27288 70.1315 4.27288C69.5739 4.27288 69.1242 4.1204 68.7971 3.81546ZM69.0313 18.5867C68.7413 18.3301 68.6001 17.9657 68.6001 17.486V7.93595C68.6001 7.45622 68.7451 7.09549 69.0313 6.84632C69.3212 6.59716 69.6854 6.47444 70.1315 6.47444C70.5775 6.47444 70.9492 6.59716 71.2428 6.84632C71.5365 7.09549 71.6888 7.45622 71.6888 7.93595V17.486C71.6888 17.9657 71.5402 18.3301 71.2428 18.5867C70.9455 18.8433 70.5738 18.9698 70.1315 18.9698C69.6891 18.9698 69.3175 18.8433 69.0313 18.5867Z" fill="white"/>
<path d="M86.1113 1.65079C86.4087 1.91483 86.5573 2.26068 86.5573 2.68835V17.4857C86.5573 17.9319 86.4161 18.2852 86.1373 18.5493C85.8586 18.8133 85.4869 18.9435 85.026 18.9435C84.5651 18.9435 84.1934 18.8133 83.9146 18.5493C83.6358 18.2852 83.4946 17.9319 83.4946 17.4857V16.8683C83.1303 17.5452 82.61 18.0732 81.9261 18.4526C81.2422 18.8319 80.4616 19.0216 79.5881 19.0216C78.5511 19.0216 77.6219 18.7575 76.8079 18.2294C75.9902 17.7014 75.3583 16.9539 74.9048 15.9907C74.4513 15.0275 74.2246 13.9156 74.2246 12.6623C74.2246 11.4091 74.4513 10.312 74.9048 9.37113C75.3583 8.43026 75.9902 7.70508 76.7967 7.1956C77.6033 6.68612 78.5362 6.42952 79.5918 6.42952C80.4653 6.42952 81.2384 6.61174 81.9149 6.97247C82.5914 7.33692 83.1118 7.8464 83.4723 8.50464V2.64001C83.4723 2.22721 83.6098 1.89252 83.8812 1.63963C84.1525 1.38303 84.5205 1.25659 84.9814 1.25659C85.4423 1.25659 85.8214 1.39047 86.1187 1.65079H86.1113ZM82.688 15.6039C83.2233 14.9271 83.4909 13.9639 83.4909 12.7107C83.4909 11.4574 83.2233 10.4979 82.688 9.82855C82.1528 9.15916 81.3983 8.82818 80.4244 8.82818C79.4506 8.82818 78.67 9.15916 78.1237 9.81739C77.581 10.4756 77.3059 11.4239 77.3059 12.6623C77.3059 13.9007 77.5773 14.8899 78.1237 15.5816C78.6663 16.2733 79.4246 16.6192 80.3984 16.6192C81.3722 16.6192 82.1491 16.2808 82.6843 15.6039H82.688Z" fill="white"/>
<path d="M92.0051 18.252C91.0722 17.7425 90.3511 17.0062 89.8419 16.0504C89.3289 15.0947 89.0762 13.979 89.0762 12.7109C89.0762 11.4428 89.3326 10.3308 89.8419 9.38251C90.3511 8.43421 91.0759 7.70531 92.0051 7.19211C92.9381 6.68263 94.0197 6.42603 95.2574 6.42603C96.4951 6.42603 97.5768 6.68263 98.5097 7.19211C99.4427 7.70531 100.156 8.43421 100.662 9.38251C101.164 10.3308 101.416 11.439 101.416 12.7109C101.416 13.9827 101.164 15.0947 100.662 16.0504C100.16 17.0062 99.4427 17.7425 98.5097 18.252C97.5768 18.7652 96.4951 19.0181 95.2574 19.0181C94.0197 19.0181 92.9381 18.7615 92.0051 18.252ZM97.5322 15.6302C98.06 14.972 98.3239 13.9976 98.3239 12.7109C98.3239 11.4242 98.06 10.4721 97.5322 9.80274C97.0044 9.13335 96.2461 8.80237 95.2574 8.80237C94.2687 8.80237 93.5067 9.13707 92.9715 9.80274C92.4363 10.4721 92.1687 11.439 92.1687 12.7109C92.1687 13.9827 92.4325 14.972 92.9604 15.6302C93.4882 16.2884 94.2464 16.6194 95.2351 16.6194C96.2238 16.6194 97.0081 16.2884 97.5359 15.6302H97.5322Z" fill="white"/>
<path d="M111.728 6.74597C111.977 6.96166 112.099 7.28148 112.099 7.70915C112.099 8.13682 111.992 8.48639 111.78 8.69837C111.568 8.91034 111.178 9.05166 110.616 9.1186L109.873 9.19297C108.899 9.29338 108.186 9.62064 107.736 10.1822C107.282 10.7437 107.056 11.4429 107.056 12.2871V17.4823C107.056 17.962 106.907 18.3265 106.61 18.5831C106.312 18.8397 105.94 18.9661 105.498 18.9661C105.056 18.9661 104.684 18.8397 104.398 18.5831C104.108 18.3265 103.967 17.962 103.967 17.4823V7.90997C103.967 7.44883 104.112 7.09182 104.398 6.84638C104.688 6.59721 105.045 6.47449 105.472 6.47449C105.9 6.47449 106.245 6.5935 106.509 6.8315C106.773 7.06951 106.903 7.41164 106.903 7.85791V8.84712C107.215 8.12195 107.684 7.5604 108.301 7.1662C108.918 6.772 109.605 6.54887 110.367 6.49681L110.713 6.47077C111.14 6.4373 111.479 6.53027 111.728 6.74225V6.74597Z" fill="white"/>
<path d="M120.33 19.7544C119.995 19.7544 119.679 19.628 119.441 19.3937C119.196 19.1557 119.055 18.8359 119.051 18.4937C119.044 18.1516 119.174 17.8281 119.412 17.5826L129.916 6.69382C130.15 6.4521 130.481 6.30706 130.819 6.30334H130.841C131.176 6.30334 131.492 6.4335 131.733 6.66779L134.666 9.53131L141.044 3.27992L140.349 3.25388C140.007 3.24273 139.691 3.09769 139.457 2.84853C139.223 2.59937 139.104 2.27211 139.115 1.92997C139.141 1.23827 139.702 0.695312 140.397 0.695312H140.438L144.129 0.825472H144.177C144.203 0.83291 144.226 0.83291 144.252 0.836629L144.293 0.844067C144.33 0.851504 144.367 0.858942 144.4 0.86638L144.426 0.873817C144.449 0.881255 144.482 0.888693 144.512 0.899849L144.538 0.911006C144.568 0.922163 144.597 0.937038 144.627 0.951913L144.649 0.96307C144.82 1.0486 144.98 1.18248 145.103 1.34611C145.129 1.37958 145.151 1.41305 145.17 1.44652C145.192 1.48371 145.211 1.5209 145.229 1.55809L145.237 1.57296C145.248 1.59528 145.255 1.61387 145.263 1.63618L145.281 1.68453C145.293 1.718 145.3 1.74403 145.307 1.77378L145.315 1.79981C145.326 1.84072 145.333 1.87791 145.337 1.9151V1.93741C145.345 1.95972 145.345 1.98947 145.348 2.02294V2.03038L145.478 5.53354C145.49 5.87568 145.371 6.20294 145.136 6.4521C144.902 6.70126 144.586 6.8463 144.244 6.86117C144.229 6.86117 144.211 6.86117 144.196 6.86117C143.505 6.86117 142.943 6.31822 142.917 5.62651L142.895 5.03521L135.558 12.2238C135.316 12.458 135 12.5882 134.662 12.5882C134.324 12.5882 134.008 12.458 133.77 12.2238L130.863 9.38627L121.251 19.3491C121.01 19.602 120.683 19.7396 120.33 19.7396V19.7544Z" fill="url(#paint0_linear_7454_3331)"/>
<path d="M120.143 19.9294C119.456 19.9294 118.894 19.3678 118.894 18.6798V3.87136L116.594 5.37378C116.43 5.4965 116.229 5.55972 115.999 5.55972C115.769 5.55972 115.445 5.48906 115.155 5.14321C114.94 4.89033 114.828 4.59282 114.828 4.25812C114.828 3.98664 114.921 3.59616 115.356 3.29494L119.288 0.673144C119.582 0.490921 119.879 0.397949 120.173 0.397949C120.515 0.397949 120.816 0.520671 121.047 0.747522C121.281 0.981809 121.4 1.29419 121.4 1.67352V18.6798C121.4 19.3678 120.838 19.9294 120.151 19.9294H120.143Z" fill="url(#paint1_linear_7454_3331)"/>
<path d="M133.723 20C128.211 20 123.729 15.5151 123.729 10C123.729 4.48494 128.215 0 133.723 0C134.734 0 135.734 0.152473 136.697 0.449981C137.396 0.665675 137.786 1.40945 137.57 2.10859C137.355 2.80774 136.611 3.19822 135.913 2.98252C135.21 2.76311 134.474 2.65154 133.727 2.65154C129.676 2.65154 126.382 5.94645 126.382 10C126.382 14.0536 129.676 17.3485 133.727 17.3485C137.778 17.3485 141.072 14.0498 141.072 10C141.072 9.26739 141.666 8.67609 142.395 8.67609C143.123 8.67609 143.718 9.2711 143.718 10C143.718 15.5151 139.235 20 133.723 20Z" fill="white"/>
<defs>
<linearGradient id="paint0_linear_7454_3331" x1="124.329" y1="17.155" x2="136.514" y2="7.40288" gradientUnits="userSpaceOnUse">
<stop stop-color="#8C6239"/>
<stop offset="1" stop-color="#D3B583"/>
</linearGradient>
<linearGradient id="paint1_linear_7454_3331" x1="118.251" y1="8.07738" x2="118.843" y2="29.1819" gradientUnits="userSpaceOnUse">
<stop stop-color="#8C6239"/>
<stop offset="1" stop-color="#D3B583"/>
</linearGradient>
</defs>
</svg>
